<svg xmlns="http://www.w3.org/2000/svg" width="32" height="22" viewBox="0 0 32 22"><path fill="#fff" d="M29.09 0H2.91A2.83 2.83 0 0 0 0 2.75v16.5C0 20.77 1.3 22 2.91 22h26.18A2.83 2.83 0 0 0 32 19.25V2.75C32 1.23 30.7 0 29.09 0zM2.91 1.37h26.18c.17 0 .33.04.49.09l-12.59 11.9a1.45 1.45 0 0 1-1.98 0L2.42 1.46c.16-.05.32-.09.49-.09zM1.45 19.25V2.75l.03-.24L10.46 11l-8.98 8.49-.03-.24zm27.64 1.37H2.91c-.17 0-.33-.03-.49-.08l9.07-8.57 2.5 2.36c.55.53 1.28.79 2.01.79.73 0 1.46-.26 2.01-.79l2.5-2.36 9.07 8.57c-.16.05-.32.08-.49.08zm1.46-1.37l-.03.24L21.54 11l8.98-8.49.03.24z"/></svg>