<svg xmlns="http://www.w3.org/2000/svg" width="30" height="30" viewBox="0 0 30 30"><path fill="#fff" d="M30 23.85h-.01a2.03 2.03 0 0 0-.96-1.73l-5.78-4.49a2.04 2.04 0 0 0-2.67-.18l-1.6 1.63-.01-.01a1.35 1.35 0 0 1-2.13-.12l-.03.04A26.11 26.11 0 0 1 11 13.2l.05-.04a1.36 1.36 0 0 1-.1-2.16l1.6-1.59a2.03 2.03 0 0 0-.19-2.68L7.86.96A2.04 2.04 0 0 0 6.13 0C3.42 0 0 3.2 0 7.16c0 1.09.25 2.13.7 3.06l-.03.02a43.3 43.3 0 0 0 19.1 19.09l.01-.02c.93.44 1.96.69 3.06.69C26.8 30 30 26.59 30 23.86v-.01zm-7.16 4.79c-.85 0-1.69-.19-2.47-.57a1.85 1.85 0 0 0-.23-.08A41.79 41.79 0 0 1 2.01 9.87a1.54 1.54 0 0 0-.09-.24 5.73 5.73 0 0 1-.56-2.47c0-3.31 2.9-5.8 4.78-5.8.24 0 .4.13.48.2l.1.13c.01.04.04.07.07.11l4.49 5.77.11.13c.08.07.2.24.2.48 0 .12-.03.24-.1.34l-1.52 1.51-.02.02a2.74 2.74 0 0 0-.11 3.87l.05.08a27.4 27.4 0 0 0 6.12 6.09l.06.04a2.7 2.7 0 0 0 3.8-.02l.07-.07 1.53-1.54c.1-.07.22-.1.34-.1.24 0 .4.12.48.2l.13.11 5.77 4.49.11.08.13.09c.07.07.2.24.2.48v.14c-.1 1.88-2.56 4.65-5.79 4.65z"/></svg>