<?xml version="1.0" encoding="UTF-8" standalone="no"?>
<!DOCTYPE svg PUBLIC "-//W3C//DTD SVG 1.1//EN" "http://www.w3.org/Graphics/SVG/1.1/DTD/svg11.dtd">
<svg version="1.1" xmlns="http://www.w3.org/2000/svg" xmlns:xlink="http://www.w3.org/1999/xlink" preserveAspectRatio="xMidYMid meet" viewBox="12.722573466403896 14.990663593602747 38.99978411769655 39.309834075615136" width="35" height="35.31"><defs><path d="M24.28 16L24.56 16.02L24.84 16.04L25.12 16.08L25.4 16.12L25.67 16.17L25.95 16.23L26.22 16.29L26.49 16.37L26.76 16.45L27.03 16.54L27.3 16.64L27.56 16.75L27.83 16.86L28.09 16.99L28.35 17.12L28.37 17.13L28.4 17.15L28.42 17.16L28.45 17.17L28.47 17.18L28.5 17.19L28.52 17.2L28.55 17.21L28.57 17.21L28.6 17.22L28.62 17.23L28.65 17.23L28.67 17.24L28.7 17.24L28.73 17.24L28.75 17.25L28.78 17.25L28.81 17.25L28.84 17.25L28.87 17.24L28.9 17.24L28.93 17.24L29.2 17.2L29.48 17.17L29.75 17.15L30.03 17.13L30.31 17.11L30.58 17.1L30.86 17.09L31.13 17.09L31.4 17.1L31.68 17.1L31.95 17.12L32.23 17.13L32.5 17.16L32.77 17.18L33.04 17.22L33.32 17.25L33.59 17.29L33.86 17.34L34.13 17.39L34.41 17.44L34.68 17.5L34.95 17.56L35.25 17.64L35.55 17.72L35.85 17.8L36.14 17.89L36.43 17.99L36.72 18.09L37.01 18.2L37.29 18.31L37.58 18.43L37.85 18.56L38.13 18.69L38.4 18.82L38.68 18.96L38.94 19.11L39.21 19.26L39.47 19.41L39.74 19.57L39.99 19.74L40.25 19.91L40.5 20.09L40.76 20.27L41 20.45L41.28 20.67L41.54 20.88L41.8 21.1L42.06 21.33L42.31 21.56L42.55 21.8L42.79 22.04L43.02 22.28L43.25 22.53L43.48 22.78L43.69 23.04L43.91 23.3L44.11 23.57L44.31 23.84L44.51 24.12L44.7 24.4L44.89 24.68L45.06 24.97L45.24 25.27L45.41 25.57L45.57 25.87L45.73 26.18L45.85 26.43L45.97 26.68L46.08 26.94L46.19 27.19L46.29 27.45L46.39 27.71L46.49 27.97L46.58 28.23L46.66 28.49L46.75 28.75L46.82 29.02L46.9 29.28L46.96 29.55L47.03 29.82L47.08 30.09L47.14 30.36L47.19 30.64L47.23 30.91L47.27 31.19L47.3 31.46L47.33 31.74L47.36 32.02L47.36 32.09L47.37 32.16L47.37 32.22L47.37 32.29L47.38 32.35L47.38 32.42L47.38 32.49L47.38 32.55L47.39 32.62L47.39 32.68L47.39 32.75L47.39 32.81L47.39 32.88L47.4 32.94L47.4 33.01L47.4 33.07L47.4 33.14L47.4 33.2L47.4 33.27L47.41 33.33L47.41 33.4L47.41 33.46L47.41 33.56L47.41 33.65L47.41 33.75L47.41 33.85L47.41 33.94L47.41 34.04L47.41 34.14L47.4 34.23L47.4 34.33L47.39 34.42L47.39 34.52L47.38 34.62L47.37 34.71L47.36 34.81L47.35 34.9L47.34 35L47.33 35.09L47.32 35.19L47.31 35.29L47.3 35.38L47.28 35.48L47.27 35.57L47.26 35.61L47.26 35.65L47.25 35.68L47.25 35.72L47.25 35.75L47.25 35.79L47.25 35.82L47.26 35.86L47.26 35.89L47.27 35.93L47.27 35.96L47.28 35.99L47.29 36.03L47.3 36.06L47.31 36.09L47.32 36.13L47.33 36.16L47.35 36.19L47.36 36.23L47.38 36.26L47.4 36.29L47.42 36.33L47.52 36.52L47.63 36.71L47.72 36.9L47.82 37.09L47.91 37.29L47.99 37.48L48.07 37.68L48.14 37.88L48.21 38.08L48.28 38.28L48.34 38.48L48.4 38.69L48.45 38.89L48.5 39.1L48.54 39.31L48.58 39.51L48.61 39.72L48.64 39.94L48.67 40.15L48.69 40.36L48.7 40.58L48.71 40.8L48.72 41.21L48.72 41.62L48.7 42.02L48.67 42.41L48.62 42.8L48.56 43.18L48.48 43.56L48.39 43.93L48.29 44.3L48.17 44.66L48.03 45.01L47.89 45.36L47.72 45.7L47.55 46.04L47.36 46.37L47.16 46.7L46.94 47.01L46.7 47.33L46.46 47.64L46.2 47.94L45.92 48.23L45.63 48.52L45.39 48.75L45.14 48.97L44.88 49.18L44.62 49.38L44.36 49.57L44.09 49.75L43.82 49.92L43.54 50.08L43.26 50.23L42.98 50.37L42.69 50.5L42.39 50.62L42.09 50.73L41.79 50.83L41.48 50.92L41.17 51L40.85 51.08L40.53 51.14L40.21 51.19L39.88 51.23L39.55 51.26L39.21 51.29L38.93 51.3L38.64 51.3L38.36 51.3L38.08 51.28L37.81 51.26L37.53 51.24L37.26 51.2L36.99 51.16L36.72 51.11L36.45 51.05L36.18 50.99L35.92 50.92L35.66 50.84L35.4 50.75L35.14 50.66L34.89 50.55L34.64 50.44L34.38 50.33L34.13 50.2L33.89 50.07L33.64 49.93L33.4 49.79L33.35 49.77L33.31 49.74L33.27 49.73L33.23 49.71L33.19 49.7L33.15 49.69L33.11 49.68L33.06 49.68L33.02 49.67L32.98 49.67L32.94 49.67L32.9 49.67L32.86 49.67L32.82 49.67L32.77 49.68L32.73 49.68L32.69 49.69L32.65 49.69L32.61 49.7L32.57 49.7L32.53 49.71L32.49 49.71L32.34 49.72L32.19 49.74L32.05 49.75L31.9 49.76L31.75 49.76L31.61 49.77L31.46 49.77L31.31 49.78L31.16 49.78L31.02 49.78L30.87 49.78L30.72 49.78L30.58 49.77L30.43 49.77L30.28 49.76L30.14 49.75L29.99 49.74L29.84 49.73L29.7 49.72L29.55 49.7L29.4 49.69L29.26 49.67L28.98 49.64L28.71 49.6L28.44 49.56L28.17 49.52L27.9 49.47L27.63 49.41L27.36 49.35L27.1 49.29L26.83 49.22L26.57 49.15L26.31 49.07L26.04 48.99L25.79 48.91L25.53 48.82L25.27 48.72L25.02 48.62L24.76 48.51L24.51 48.4L24.26 48.29L24.01 48.17L23.77 48.05L23.52 47.92L22.97 47.61L22.44 47.28L21.92 46.95L21.42 46.6L20.93 46.23L20.47 45.85L20.02 45.46L19.59 45.05L19.17 44.63L18.78 44.2L18.4 43.75L18.03 43.28L17.69 42.81L17.36 42.31L17.05 41.81L16.76 41.29L16.48 40.76L16.22 40.21L15.98 39.65L15.76 39.07L15.55 38.48L15.37 37.88L15.3 37.65L15.24 37.43L15.19 37.21L15.14 36.99L15.09 36.77L15.04 36.55L15 36.33L14.96 36.1L14.93 35.88L14.89 35.66L14.86 35.43L14.84 35.21L14.81 34.98L14.8 34.76L14.78 34.53L14.76 34.31L14.75 34.08L14.75 33.85L14.74 33.63L14.74 33.4L14.74 33.17L14.75 32.94L14.75 32.86L14.75 32.77L14.75 32.69L14.76 32.61L14.76 32.52L14.77 32.44L14.77 32.35L14.78 32.27L14.78 32.18L14.79 32.1L14.8 32.01L14.8 31.93L14.81 31.84L14.82 31.76L14.83 31.67L14.84 31.59L14.85 31.51L14.87 31.42L14.88 31.34L14.89 31.25L14.91 31.17L14.93 31.09L14.93 31.06L14.93 31.04L14.93 31.02L14.94 31L14.94 30.98L14.94 30.96L14.93 30.94L14.93 30.92L14.93 30.9L14.93 30.88L14.92 30.86L14.92 30.84L14.92 30.82L14.91 30.8L14.9 30.78L14.9 30.76L14.89 30.74L14.88 30.72L14.87 30.7L14.87 30.68L14.86 30.66L14.85 30.64L14.74 30.43L14.63 30.21L14.54 30L14.44 29.78L14.36 29.56L14.28 29.34L14.2 29.12L14.13 28.89L14.07 28.67L14.01 28.45L13.95 28.22L13.91 27.99L13.86 27.76L13.83 27.53L13.8 27.3L13.77 27.07L13.75 26.84L13.74 26.6L13.73 26.37L13.72 26.13L13.72 25.89L13.73 25.65L13.75 25.34L13.77 25.04L13.81 24.73L13.85 24.44L13.9 24.14L13.96 23.85L14.03 23.56L14.1 23.27L14.19 22.99L14.28 22.7L14.39 22.43L14.5 22.15L14.61 21.88L14.74 21.62L14.88 21.35L15.02 21.09L15.18 20.83L15.34 20.58L15.51 20.33L15.69 20.08L15.87 19.84L16.07 19.6L16.3 19.34L16.53 19.09L16.76 18.85L17.01 18.61L17.25 18.39L17.51 18.18L17.77 17.98L18.03 17.79L18.3 17.6L18.58 17.43L18.86 17.27L19.14 17.11L19.43 16.97L19.73 16.83L20.03 16.71L20.34 16.59L20.65 16.49L20.97 16.39L21.29 16.31L21.62 16.23L21.95 16.16L22.29 16.11L22.58 16.07L22.86 16.04L23.15 16.01L23.44 16L23.72 15.99L24 15.99L24.28 16ZM23.2 17.47L22.97 17.49L22.74 17.51L22.51 17.54L22.29 17.58L22.07 17.62L21.84 17.66L21.62 17.71L21.41 17.77L21.19 17.84L20.97 17.91L20.76 17.99L20.55 18.07L20.34 18.16L20.13 18.26L19.92 18.36L19.71 18.47L19.51 18.59L19.13 18.83L18.77 19.07L18.42 19.33L18.09 19.6L17.78 19.88L17.48 20.17L17.21 20.47L16.95 20.79L16.71 21.11L16.48 21.44L16.27 21.79L16.09 22.14L15.91 22.5L15.76 22.88L15.62 23.27L15.5 23.66L15.4 24.07L15.32 24.48L15.26 24.91L15.21 25.35L15.18 25.8L15.17 26.02L15.17 26.25L15.18 26.48L15.19 26.7L15.21 26.92L15.23 27.14L15.26 27.36L15.3 27.58L15.34 27.8L15.39 28.02L15.45 28.23L15.51 28.45L15.57 28.66L15.65 28.87L15.72 29.08L15.81 29.29L15.89 29.49L15.99 29.7L16.09 29.9L16.19 30.1L16.3 30.3L16.31 30.32L16.33 30.35L16.34 30.37L16.35 30.39L16.36 30.41L16.37 30.43L16.38 30.45L16.39 30.48L16.4 30.5L16.41 30.52L16.42 30.55L16.43 30.57L16.43 30.59L16.44 30.62L16.44 30.64L16.44 30.67L16.45 30.7L16.45 30.72L16.44 30.75L16.44 30.78L16.44 30.81L16.4 31.04L16.36 31.27L16.33 31.51L16.3 31.74L16.28 31.98L16.25 32.21L16.24 32.45L16.22 32.68L16.21 32.92L16.2 33.15L16.2 33.39L16.2 33.62L16.2 33.86L16.21 34.09L16.22 34.33L16.24 34.56L16.26 34.8L16.28 35.03L16.31 35.27L16.34 35.5L16.38 35.74L16.47 36.27L16.58 36.79L16.71 37.3L16.85 37.8L17.01 38.29L17.18 38.78L17.37 39.25L17.57 39.72L17.79 40.18L18.02 40.63L18.27 41.07L18.54 41.5L18.82 41.92L19.12 42.33L19.43 42.73L19.76 43.13L20.11 43.51L20.47 43.88L20.85 44.25L21.24 44.6L21.65 44.94L22.13 45.32L22.61 45.67L23.1 46L23.6 46.31L24.1 46.6L24.61 46.86L25.13 47.1L25.65 47.32L26.18 47.52L26.71 47.7L27.26 47.85L27.81 47.98L28.36 48.09L28.92 48.18L29.49 48.25L30.07 48.29L30.65 48.32L31.23 48.32L31.83 48.3L32.42 48.26L33.03 48.19L33.08 48.19L33.12 48.18L33.17 48.18L33.21 48.18L33.26 48.18L33.3 48.18L33.35 48.18L33.39 48.19L33.43 48.19L33.47 48.2L33.52 48.21L33.56 48.22L33.6 48.24L33.64 48.25L33.68 48.27L33.73 48.29L33.77 48.31L33.81 48.33L33.85 48.35L33.89 48.38L33.94 48.41L34.24 48.6L34.54 48.78L34.85 48.95L35.15 49.1L35.47 49.24L35.78 49.36L36.1 49.47L36.42 49.57L36.74 49.65L37.06 49.72L37.39 49.78L37.72 49.82L38.05 49.85L38.38 49.87L38.71 49.87L39.05 49.86L39.39 49.84L39.73 49.8L40.07 49.75L40.42 49.69L40.77 49.61L41.26 49.48L41.73 49.32L42.2 49.13L42.65 48.91L43.09 48.67L43.51 48.41L43.92 48.12L44.3 47.81L44.67 47.47L45.02 47.12L45.35 46.74L45.65 46.35L45.94 45.94L46.2 45.51L46.43 45.06L46.64 44.6L46.82 44.12L46.97 43.63L47.1 43.13L47.19 42.61L47.26 42.09L47.28 41.81L47.29 41.53L47.3 41.26L47.3 40.98L47.28 40.71L47.26 40.44L47.24 40.17L47.2 39.91L47.15 39.64L47.1 39.38L47.04 39.12L46.97 38.86L46.89 38.61L46.8 38.35L46.7 38.1L46.59 37.85L46.48 37.6L46.36 37.36L46.23 37.12L46.08 36.88L45.93 36.64L45.91 36.6L45.89 36.57L45.88 36.54L45.86 36.5L45.84 36.47L45.83 36.43L45.81 36.4L45.8 36.37L45.79 36.33L45.78 36.3L45.77 36.26L45.77 36.23L45.76 36.19L45.76 36.15L45.76 36.12L45.76 36.08L45.76 36.04L45.76 36.01L45.76 35.97L45.76 35.93L45.77 35.89L45.79 35.77L45.81 35.66L45.82 35.54L45.84 35.43L45.86 35.31L45.87 35.19L45.89 35.07L45.9 34.96L45.91 34.84L45.92 34.72L45.93 34.6L45.94 34.48L45.95 34.36L45.95 34.24L45.96 34.11L45.97 33.99L45.97 33.87L45.97 33.74L45.97 33.62L45.97 33.49L45.97 33.36L45.97 33.26L45.98 33.17L45.98 33.07L45.98 32.97L45.98 32.87L45.97 32.77L45.97 32.67L45.97 32.56L45.96 32.46L45.95 32.36L45.94 32.26L45.93 32.15L45.92 32.05L45.91 31.95L45.9 31.84L45.89 31.74L45.87 31.63L45.86 31.53L45.84 31.42L45.83 31.32L45.81 31.22L45.72 30.7L45.62 30.2L45.5 29.7L45.36 29.21L45.22 28.73L45.05 28.26L44.87 27.79L44.68 27.34L44.47 26.89L44.25 26.45L44.02 26.02L43.76 25.59L43.5 25.18L43.21 24.77L42.91 24.37L42.6 23.98L42.27 23.6L41.93 23.23L41.57 22.87L41.19 22.52L40.8 22.17L40.31 21.77L39.8 21.38L39.29 21.03L38.77 20.69L38.25 20.38L37.71 20.1L37.17 19.84L36.63 19.6L36.07 19.39L35.51 19.2L34.94 19.04L34.37 18.9L33.78 18.79L33.19 18.69L32.6 18.63L31.99 18.59L31.38 18.57L30.76 18.57L30.14 18.6L29.51 18.66L28.87 18.73L28.83 18.74L28.78 18.74L28.74 18.75L28.7 18.75L28.66 18.75L28.62 18.75L28.58 18.75L28.54 18.75L28.5 18.75L28.46 18.75L28.42 18.74L28.38 18.73L28.34 18.73L28.3 18.72L28.26 18.7L28.22 18.69L28.18 18.68L28.14 18.66L28.1 18.64L28.06 18.62L28.02 18.6L27.85 18.5L27.67 18.4L27.5 18.31L27.32 18.23L27.15 18.15L26.97 18.07L26.79 18L26.61 17.93L26.42 17.87L26.24 17.81L26.05 17.76L25.86 17.71L25.68 17.67L25.49 17.63L25.3 17.59L25.1 17.56L24.91 17.53L24.72 17.51L24.52 17.49L24.32 17.48L24.12 17.47L23.89 17.46L23.66 17.46L23.43 17.46L23.2 17.47Z" id="a4LBapZpYR"></path><path d="M26.44 41.78C25.44 41.31 24.56 40.68 23.95 39.73C23.56 39.13 23.43 38.47 23.52 37.77C23.61 37.16 23.98 36.75 24.56 36.55C25.22 36.32 25.84 36.44 26.37 36.9C26.82 37.29 27.16 37.77 27.53 38.23C28.16 39.01 28.97 39.44 29.94 39.59C31.01 39.75 32.05 39.73 33.01 39.16C33.69 38.75 34.18 38.21 34.18 37.35C34.18 36.54 33.83 35.97 33.07 35.67C32.12 35.28 31.11 35.13 30.14 34.86C28.94 34.53 27.7 34.33 26.55 33.84C24.95 33.16 23.82 32.06 23.56 30.27C23.25 28.03 23.96 26.19 26.03 25C27.13 24.36 28.34 24.08 29.62 23.97C31.42 23.82 33.15 24.09 34.79 24.87C35.57 25.23 36.28 25.69 36.85 26.34C37.27 26.82 37.53 27.36 37.55 28C37.58 28.91 36.97 29.57 36.07 29.68C35.32 29.78 34.71 29.52 34.23 28.95C33.45 28.02 32.56 27.25 31.29 27.13C30.45 27.05 29.61 27 28.8 27.31C28.13 27.58 27.62 28.02 27.46 28.78C27.31 29.44 27.56 29.91 28.07 30.27C28.82 30.81 29.71 30.98 30.58 31.19C31.96 31.53 33.37 31.74 34.73 32.21C36.05 32.66 37.19 33.39 37.79 34.71C38.88 37.14 38.32 40.4 35.16 41.84C33.83 42.44 32.64 42.64 30.92 42.64C29.37 42.63 27.86 42.44 26.44 41.78Z" id="erz2faVIN"></path></defs><g><g><use xlink:href="#a4LBapZpYR" opacity="1" fill="#ffffff" fill-opacity="1"></use><g><use xlink:href="#a4LBapZpYR" opacity="1" fill-opacity="0" stroke="#000000" stroke-width="1" stroke-opacity="0"></use></g></g><g><use xlink:href="#erz2faVIN" opacity="1" fill="#ffffff" fill-opacity="1"></use><g><use xlink:href="#erz2faVIN" opacity="1" fill-opacity="0" stroke="#000000" stroke-width="1" stroke-opacity="0"></use></g></g></g></svg>