<?xml version="1.0" encoding="UTF-8" standalone="no"?>
<!DOCTYPE svg PUBLIC "-//W3C//DTD SVG 1.1//EN" "http://www.w3.org/Graphics/SVG/1.1/DTD/svg11.dtd">
<svg version="1.1" xmlns="http://www.w3.org/2000/svg" xmlns:xlink="http://www.w3.org/1999/xlink" preserveAspectRatio="xMidYMid meet" viewBox="26.488188121658993 -1 39 42.29" width="35" height="38.29"><defs><path d="M50.51 0.13L51.42 0.28L52.31 0.5L53.18 0.77L54.02 1.09L54.84 1.47L55.62 1.89L56.37 2.37L57.09 2.89L57.78 3.45L58.43 4.06L59.03 4.71L59.6 5.39L60.12 6.11L60.59 6.87L61.02 7.65L61.4 8.46L61.72 9.31L61.99 10.17L62.21 11.06L62.36 11.97L62.46 12.9L62.49 13.85L62.49 20.42L62.46 21.37L62.36 22.3L62.21 23.21L61.99 24.1L61.72 24.97L61.4 25.81L61.02 26.62L60.59 27.41L60.12 28.16L59.6 28.88L59.03 29.56L58.43 30.21L57.78 30.82L57.09 31.38L56.37 31.9L55.62 32.38L54.84 32.8L54.02 33.18L53.18 33.51L52.31 33.78L51.42 33.99L50.51 34.15L49.58 34.24L48.63 34.27L41.68 34.27L37.46 38.1L37.44 38.12L37.42 38.13L37.4 38.15L37.39 38.16L37.37 38.17L37.35 38.18L37.33 38.19L37.31 38.21L37.29 38.22L37.27 38.23L37.25 38.23L37.23 38.24L37.21 38.25L37.19 38.26L37.16 38.26L37.14 38.27L37.12 38.27L37.1 38.28L37.08 38.28L37.06 38.28L37.03 38.29L37.01 38.29L36.99 38.29L36.97 38.29L36.95 38.29L36.94 38.29L36.93 38.29L36.92 38.29L36.9 38.29L36.89 38.29L36.88 38.28L36.87 38.28L36.85 38.28L36.84 38.28L36.83 38.28L36.82 38.27L36.81 38.27L36.79 38.27L36.78 38.27L36.77 38.26L36.76 38.26L36.74 38.25L36.73 38.25L36.72 38.25L36.71 38.24L36.7 38.24L36.68 38.23L36.67 38.23L36.64 38.21L36.61 38.2L36.58 38.18L36.55 38.16L36.52 38.14L36.49 38.11L36.47 38.09L36.44 38.07L36.42 38.04L36.4 38.01L36.38 37.99L36.36 37.96L36.34 37.93L36.32 37.9L36.31 37.87L36.29 37.84L36.28 37.8L36.27 37.77L36.26 37.74L36.25 37.7L36.25 37.67L36.24 37.63L36.24 37.6L36.24 37.56L36.24 33.3L35.59 33.03L34.96 32.72L34.35 32.38L33.77 32.02L33.2 31.63L32.65 31.21L32.13 30.77L31.63 30.3L31.16 29.81L30.71 29.3L30.29 28.77L29.89 28.21L29.52 27.64L29.18 27.05L28.87 26.45L28.59 25.83L28.34 25.19L28.12 24.54L27.93 23.88L27.77 23.21L27.65 22.52L27.56 21.83L27.51 21.13L27.49 20.42L27.49 13.85L27.52 12.9L27.61 11.97L27.77 11.06L27.98 10.17L28.25 9.31L28.58 8.46L28.96 7.65L29.38 6.87L29.86 6.11L30.38 5.39L30.94 4.71L31.55 4.06L32.2 3.45L32.88 2.89L33.6 2.37L34.35 1.89L35.14 1.47L35.95 1.09L36.8 0.77L37.66 0.5L38.55 0.28L39.46 0.13L40.39 0.03L41.34 0L48.63 0L49.58 0.03L50.51 0.13ZM40.37 1.5L39.43 1.61L38.5 1.79L37.6 2.03L36.73 2.35L35.9 2.72L35.09 3.15L34.32 3.64L33.59 4.18L32.91 4.78L32.27 5.42L31.67 6.1L31.13 6.83L30.64 7.6L30.21 8.41L29.83 9.24L29.52 10.11L29.27 11.01L29.09 11.94L28.98 12.88L28.95 13.85L28.95 20.42L28.97 21.17L29.04 21.9L29.14 22.63L29.3 23.34L29.49 24.04L29.72 24.73L29.99 25.39L30.3 26.04L30.64 26.67L31.02 27.28L31.44 27.87L31.88 28.43L32.36 28.96L32.87 29.47L33.41 29.94L33.98 30.39L34.57 30.81L35.2 31.19L35.84 31.53L36.52 31.84L37.21 32.11L37.25 32.12L37.29 32.14L37.33 32.16L37.37 32.19L37.4 32.21L37.43 32.24L37.47 32.26L37.5 32.29L37.52 32.33L37.55 32.36L37.57 32.39L37.6 32.43L37.62 32.47L37.64 32.5L37.65 32.54L37.66 32.58L37.68 32.62L37.68 32.67L37.69 32.71L37.7 32.75L37.7 32.8L37.7 35.92L40.91 33L40.93 32.99L40.95 32.97L40.97 32.95L40.99 32.94L41.02 32.92L41.04 32.91L41.06 32.9L41.08 32.89L41.11 32.88L41.13 32.87L41.15 32.86L41.18 32.85L41.2 32.84L41.23 32.84L41.25 32.83L41.28 32.82L41.3 32.82L41.33 32.82L41.35 32.82L41.38 32.81L41.4 32.81L48.63 32.81L49.28 32.79L49.93 32.7L50.56 32.56L51.19 32.36L51.82 32.11L52.44 31.8L53.05 31.44L53.66 31.01L54.26 30.54L54.86 30L55.45 29.41L56.03 28.77L56.61 28.06L57.18 27.31L57.75 26.49L58.31 25.62L58.87 24.69L59.42 23.71L59.96 22.67L60.5 21.57L61.03 20.42L61.03 13.85L60.99 12.88L60.88 11.94L60.7 11.01L60.45 10.11L60.14 9.24L59.77 8.41L59.34 7.6L58.85 6.83L58.3 6.1L57.71 5.42L57.07 4.78L56.38 4.18L55.65 3.64L54.89 3.15L54.08 2.72L53.24 2.35L52.37 2.03L51.47 1.79L50.55 1.61L49.6 1.5L48.63 1.46L41.34 1.46L40.37 1.5Z" id="e88XYDrec"></path><path d="M38.38 7.31L38.47 7.33L38.56 7.37L38.64 7.41L38.72 7.47L38.79 7.54L42.29 11.58L42.47 11.81L42.61 12.07L42.72 12.33L42.79 12.61L42.82 12.88L42.82 13.16L42.79 13.44L42.71 13.71L42.61 13.97L42.46 14.22L42.29 14.45L42.08 14.66L42.08 14.66L41.55 15.12L41.88 15.99L42.25 16.75L42.65 17.4L43.07 17.97L43.52 18.45L43.98 18.86L44.45 19.2L44.94 19.49L45.43 19.73L45.92 19.94L46.42 20.12L46.91 20.29L47.12 19.97L47.2 19.85L47.29 19.73L47.39 19.63L47.49 19.53L47.6 19.44L47.71 19.35L47.83 19.27L47.96 19.21L48.09 19.15L48.22 19.09L48.36 19.05L48.5 19.02L48.64 18.99L48.78 18.98L48.93 18.97L49.07 18.97L49.21 18.98L49.35 19.01L49.49 19.04L49.63 19.08L49.76 19.13L49.89 19.18L50.02 19.25L50.14 19.32L54.62 22.24L54.7 22.29L54.77 22.36L54.83 22.44L54.88 22.52L54.92 22.61L54.94 22.7L54.95 22.79L54.96 22.88L54.95 22.97L54.92 23.07L54.89 23.16L54.84 23.24L53.25 25.69L53.07 25.95L52.86 26.19L52.65 26.4L52.41 26.6L52.16 26.77L51.9 26.92L51.64 27.05L51.36 27.16L51.07 27.24L50.78 27.3L50.48 27.34L50.19 27.35L50.02 27.35L49.85 27.33L49.68 27.31L49.51 27.29L49.34 27.25L49.17 27.2L49.01 27.15L48.84 27.09L48.68 27.02L48.52 26.94L48.36 26.86L48.21 26.76L48.06 26.69L47.73 26.51L47.23 26.23L46.6 25.87L45.85 25.43L45.02 24.92L44.13 24.35L43.21 23.72L42.28 23.06L41.37 22.35L40.51 21.62L39.73 20.87L39.01 20.12L38.35 19.36L37.73 18.62L37.17 17.91L36.67 17.23L36.22 16.59L35.83 16.02L35.51 15.52L35.25 15.1L35.05 14.78L34.93 14.56L34.87 14.47L34.87 14.46L34.86 14.45L34.86 14.44L34.85 14.43L34.85 14.42L34.85 14.42L34.84 14.41L34.84 14.4L34.83 14.39L34.83 14.38L34.83 14.37L34.82 14.36L34.74 14.12L34.64 13.83L34.54 13.48L34.45 13.08L34.39 12.65L34.35 12.2L34.37 11.72L34.44 11.24L34.58 10.76L34.81 10.28L35.13 9.82L35.56 9.38L37.76 7.47L37.84 7.41L37.92 7.36L38.01 7.33L38.1 7.3L38.19 7.29L38.29 7.29L38.38 7.31ZM36.29 10.71L36.11 10.95L35.97 11.21L35.87 11.49L35.82 11.8L35.81 12.14L35.84 12.51L35.91 12.91L36.02 13.34L36.17 13.81L36.29 14L36.49 14.34L36.78 14.79L37.14 15.35L37.58 15.98L38.09 16.69L38.67 17.45L39.31 18.24L40.01 19.05L40.77 19.85L41.68 20.7L42.69 21.53L43.76 22.33L44.84 23.07L45.89 23.74L46.85 24.32L47.68 24.81L48.34 25.18L48.77 25.42L48.94 25.5L49.16 25.62L49.41 25.7L49.67 25.74L49.95 25.74L50.25 25.7L50.57 25.62L50.9 25.5L51.26 25.34L51.63 25.14L52.03 24.9L53.22 23.06L49.35 20.55L49.3 20.52L49.25 20.49L49.19 20.47L49.14 20.45L49.08 20.44L49.03 20.43L48.97 20.43L48.91 20.43L48.86 20.43L48.8 20.44L48.74 20.46L48.69 20.48L48.64 20.5L48.59 20.52L48.54 20.55L48.49 20.59L48.45 20.63L48.41 20.67L48.37 20.71L48.34 20.76L47.82 21.56L47.76 21.63L47.7 21.7L47.62 21.76L47.54 21.81L47.45 21.85L47.36 21.87L47.27 21.89L47.17 21.89L47.08 21.88L46.98 21.85L46.66 21.75L45.99 21.52L45.29 21.26L44.56 20.93L43.83 20.53L43.1 20.02L42.39 19.38L41.71 18.59L41.08 17.63L40.51 16.48L40.01 15.1L39.99 15.02L39.98 14.94L39.98 14.85L39.98 14.77L40 14.69L40.03 14.61L40.07 14.54L40.11 14.47L40.16 14.4L40.23 14.34L41.12 13.56L41.2 13.48L41.27 13.38L41.32 13.28L41.36 13.17L41.37 13.06L41.37 12.95L41.35 12.84L41.32 12.73L41.26 12.63L41.19 12.53L38.16 9.05L36.51 10.48L36.29 10.71Z" id="c5kt84LpPR"></path><path d="M45.75 12.35C45.64 12.74 45.87 13.14 46.25 13.25C47.34 13.56 48.2 14.43 48.51 15.51C48.6 15.83 48.89 16.04 49.21 16.04C49.28 16.04 49.34 16.04 49.41 16.02C49.8 15.91 50.02 15.51 49.91 15.12C49.47 13.55 48.22 12.29 46.65 11.85C46.26 11.74 45.86 11.96 45.75 12.35Z" id="hZyXDw0wQ"></path><path d="M52.4 16.17C52.79 16.06 53.01 15.66 52.9 15.27C52.04 12.22 49.62 9.79 46.57 8.92C46.18 8.81 45.78 9.04 45.67 9.43C45.56 9.81 45.78 10.22 46.17 10.33C48.73 11.06 50.78 13.1 51.5 15.67C51.59 15.99 51.88 16.2 52.2 16.2C52.27 16.2 52.33 16.19 52.4 16.17Z" id="hgwK0nYk"></path><path d="M45.35 6.03C45.24 6.42 45.47 6.82 45.85 6.93C50.2 8.17 53.66 11.64 54.89 15.99C54.98 16.31 55.27 16.52 55.59 16.52C55.65 16.52 55.72 16.51 55.79 16.49C56.17 16.38 56.4 15.98 56.29 15.59C54.93 10.76 51.08 6.9 46.25 5.53C45.87 5.42 45.46 5.64 45.35 6.03Z" id="f14d9d2C"></path></defs><g><g><use xlink:href="#e88XYDrec" opacity="1" fill="#ffffff" fill-opacity="1"></use><g><use xlink:href="#e88XYDrec" opacity="1" fill-opacity="0" stroke="#000000" stroke-width="1" stroke-opacity="0"></use></g></g><g><use xlink:href="#c5kt84LpPR" opacity="1" fill="#ffffff" fill-opacity="1"></use><g><use xlink:href="#c5kt84LpPR" opacity="1" fill-opacity="0" stroke="#000000" stroke-width="1" stroke-opacity="0"></use></g></g><g><use xlink:href="#hZyXDw0wQ" opacity="1" fill="#ffffff" fill-opacity="1"></use><g><use xlink:href="#hZyXDw0wQ" opacity="1" fill-opacity="0" stroke="#000000" stroke-width="1" stroke-opacity="0"></use></g></g><g><use xlink:href="#hgwK0nYk" opacity="1" fill="#ffffff" fill-opacity="1"></use><g><use xlink:href="#hgwK0nYk" opacity="1" fill-opacity="0" stroke="#000000" stroke-width="1" stroke-opacity="0"></use></g></g><g><use xlink:href="#f14d9d2C" opacity="1" fill="#ffffff" fill-opacity="1"></use><g><use xlink:href="#f14d9d2C" opacity="1" fill-opacity="0" stroke="#000000" stroke-width="1" stroke-opacity="0"></use></g></g></g></svg>